<svg width="114" height="112" viewBox="0 0 114 112" fill="none" xmlns="http://www.w3.org/2000/svg">
<path d="M100.018 77V70C100.018 66.5 97.0429 64.1375 93.7832 63L80.4238 57.75L73.2988 64.75L80.4238 71.75L85.7676 61.25" stroke="white" stroke-width="2" stroke-linecap="round" stroke-linejoin="round"/>
<path d="M60.8475 61.25L66.1913 71.75L73.3163 64.75L66.1913 57.75L52.8319 63C49.5722 64.1375 46.4016 66.5 46.5975 70V85.75H57.285" stroke="white" stroke-width="2" stroke-linecap="round" stroke-linejoin="round"/>
<path d="M66.1914 50.75V57.75M80.4236 50.75V57.75" stroke="white" stroke-width="2"/>
<path d="M76.8613 26.25C71.5176 29.75 66.1738 29.75 60.8301 29.75V33.25H59.0488C58.104 33.25 57.1979 33.6187 56.5298 34.2751C55.8617 34.9315 55.4863 35.8217 55.4863 36.75C55.6658 37.8237 56.0764 38.8474 56.6908 39.7528C57.3051 40.6581 58.109 41.4243 59.0488 42C62.6113 49 67.492 54.11 73.2988 54.25" stroke="white" stroke-width="2" stroke-linecap="round" stroke-linejoin="round"/>
<path d="M76.8613 26.25C77.917 27.5333 79.2902 28.529 80.8496 29.1418C82.4089 29.7546 84.1023 29.964 85.7676 29.75V33.25H87.5488C88.4937 33.25 89.3998 33.6187 90.0679 34.2751C90.736 34.9315 91.1113 35.8217 91.1113 36.75C90.9319 37.8237 90.5212 38.8474 89.9069 39.7528C89.2925 40.6581 88.4886 41.4243 87.5488 42C83.9863 49 79.1057 54.11 73.2988 54.25" stroke="white" stroke-width="2" stroke-linecap="round" stroke-linejoin="round"/>
<path d="M91.1111 36.75V24.5C91.1111 19.6525 88.9202 15.75 83.9861 15.75C80.4236 10.5 73.4233 8.99501 65.5502 12.3725C59.5652 14.9275 55.5039 20.1075 55.5039 28.9275V36.75" stroke="white" stroke-width="2" stroke-linejoin="round"/>
<path d="M46.5978 85.75C46.0358 87.9364 45.9793 90.2186 46.4324 92.4292C46.8855 94.6399 47.8367 96.7227 49.2162 98.525L50.1425 99.75H53.705M71.5175 101.5H102.28C103.144 101.508 103.982 101.208 104.638 100.654C105.293 100.1 105.721 99.331 105.842 98.49L108.657 78.995C108.692 78.7455 108.673 78.4913 108.6 78.2499C108.527 78.0084 108.401 77.7853 108.232 77.5959C108.063 77.4065 107.854 77.2552 107.62 77.1523C107.386 77.0495 107.132 76.9975 106.875 77H76.5941C76.1618 76.9958 75.7428 77.1462 75.4151 77.4231C75.0874 77.7 74.8733 78.0845 74.8128 78.505L71.5175 101.5ZM71.5175 101.5H57.2675C56.3227 101.5 55.4165 101.131 54.7484 100.475C54.0803 99.8185 53.705 98.9282 53.705 98C53.705 97.0717 54.0803 96.1815 54.7484 95.5251C55.4165 94.8687 56.3227 94.5 57.2675 94.5H66.1738M57.2675 77V85.75C56.555 89.25 57.7128 93.3975 60.83 94.5" stroke="white" stroke-width="2" stroke-linecap="round" stroke-linejoin="round"/>
<path d="M91.1113 92.75C93.0788 92.75 94.6738 91.183 94.6738 89.25C94.6738 87.317 93.0788 85.75 91.1113 85.75C89.1438 85.75 87.5488 87.317 87.5488 89.25C87.5488 91.183 89.1438 92.75 91.1113 92.75Z" stroke="white" stroke-width="2" stroke-linecap="round" stroke-linejoin="round"/>
<path d="M3.5625 101.5H60.5625" stroke="white" stroke-width="2" stroke-linecap="round" stroke-linejoin="round"/>
<path d="M7.125 101.5C7.125 103.357 7.87567 105.137 9.21186 106.45C10.5481 107.763 12.3603 108.5 14.25 108.5H108.656" stroke="white" stroke-width="2" stroke-linecap="round" stroke-linejoin="round"/>
<path d="M21.375 36.75C30.2288 36.75 37.4062 29.6985 37.4062 21C37.4062 12.3015 30.2288 5.25 21.375 5.25C12.5212 5.25 5.34375 12.3015 5.34375 21C5.34375 29.6985 12.5212 36.75 21.375 36.75Z" stroke="white" stroke-width="2" stroke-linecap="round" stroke-linejoin="round"/>
<path d="M21.375 12.25V21L26.7188 24.5" stroke="white" stroke-width="2" stroke-linecap="round" stroke-linejoin="round"/>
<path d="M16.0312 89.25H35.625V96.25H16.0312C15.5588 96.25 15.1058 96.0656 14.7717 95.7374C14.4377 95.4092 14.25 94.9641 14.25 94.5V91C14.25 90.5359 14.4377 90.0908 14.7717 89.7626C15.1058 89.4344 15.5588 89.25 16.0312 89.25Z" stroke="white" stroke-width="2" stroke-linecap="round" stroke-linejoin="round"/>
<path d="M33.8438 89.25H37.4062" stroke="white" stroke-width="2" stroke-linecap="round" stroke-linejoin="round"/>
<path d="M33.8438 96.25H37.4062" stroke="white" stroke-width="2" stroke-linecap="round" stroke-linejoin="round"/>
<path d="M32.0625 89.25H12.4688V82.25H32.0625C32.5349 82.25 32.988 82.4344 33.322 82.7626C33.6561 83.0908 33.8438 83.5359 33.8438 84V87.5C33.8438 87.9641 33.6561 88.4092 33.322 88.7374C32.988 89.0656 32.5349 89.25 32.0625 89.25Z" stroke="white" stroke-width="2" stroke-linecap="round" stroke-linejoin="round"/>
<path d="M14.25 82.25H10.6875" stroke="white" stroke-width="2" stroke-linecap="round" stroke-linejoin="round"/>
<path d="M14.25 89.25H10.6875" stroke="white" stroke-width="2" stroke-linecap="round" stroke-linejoin="round"/>
<path d="M23.1562 64.75V63.875C23.1562 63.1788 23.4377 62.5111 23.9388 62.0188C24.4399 61.5266 25.1195 61.25 25.8281 61.25H32.9531C33.6618 61.25 34.3414 60.9734 34.8424 60.4812C35.3435 59.9889 35.625 59.3212 35.625 58.625C35.625 57.9288 35.3435 57.2611 34.8424 56.7688C34.3414 56.2766 33.6618 56 32.9531 56H28.5M28.5 70L27.5916 73.605C27.3419 74.5749 26.7702 75.4354 25.9669 76.0503C25.1636 76.6652 24.1746 76.9994 23.1562 77C22.1379 76.9994 21.1489 76.6652 20.3456 76.0503C19.5423 75.4354 18.9706 74.5749 18.7209 73.605L17.8125 70H28.5Z" stroke="white" stroke-width="2" stroke-linecap="round" stroke-linejoin="round"/>
</svg>
